<svg width="161" height="135" viewBox="0 0 161 135" fill="none" xmlns="http://www.w3.org/2000/svg">
<g clip-path="url(#clip0_435_15871)">
<path d="M59.7002 30.2726C59.3863 29.6376 59.2832 28.9189 59.4059 28.2212L60.4611 22.2016C60.577 21.5394 60.4896 20.8576 60.2104 20.2461C59.9312 19.6346 59.4734 19.122 58.8972 18.7758L53.6516 15.626C53.0457 15.2622 52.5715 14.7146 52.2979 14.0629L49.9269 8.42167C49.6664 7.80188 49.2243 7.27556 48.6588 6.91211C48.0933 6.54866 47.4309 6.36512 46.759 6.38571L40.6438 6.57136C39.9377 6.59324 39.243 6.38954 38.6604 5.9898L33.6158 2.52611C33.062 2.14528 32.4056 1.94141 31.7335 1.94141C31.0613 1.94141 30.405 2.14528 29.8511 2.52611L24.8076 5.9898C24.2247 6.38955 23.5296 6.59325 22.8232 6.57136L16.7079 6.38571C16.0362 6.36519 15.374 6.54876 14.8086 6.91222C14.2433 7.27568 13.8014 7.80196 13.5411 8.42167L11.1701 14.0629C10.8962 14.7144 10.4221 15.2619 9.81638 15.626L4.57078 18.7758C3.99459 19.122 3.53677 19.6346 3.2576 20.2461C2.97843 20.8576 2.891 21.5394 3.00685 22.2016L4.0652 28.2253C4.18845 28.923 4.0853 29.6418 3.77087 30.2767L1.06142 35.763C0.763719 36.3655 0.655522 37.044 0.751086 37.7092C0.846649 38.3744 1.14148 38.995 1.59675 39.4893L5.74298 43.9899C6.22183 44.5097 6.5225 45.1686 6.60134 45.871L7.28741 51.9512C7.36263 52.6186 7.63798 53.2476 8.07726 53.7556C8.51654 54.2636 9.0992 54.6268 9.74868 54.7974L15.6691 56.3421C16.3543 56.5193 16.965 56.9106 17.4125 57.459L21.2767 62.2038C21.701 62.7249 22.2733 63.1052 22.9181 63.2946C23.5629 63.4839 24.2499 63.4734 24.8886 63.2643L30.7044 61.3628C31.3761 61.1433 32.1001 61.1433 32.7718 61.3628L38.5866 63.2643C39.2254 63.4733 39.9126 63.4838 40.5575 63.2945C41.2024 63.1052 41.7749 62.7249 42.1995 62.2038L46.0637 57.459C46.5112 56.9107 47.122 56.5194 47.8071 56.3421L53.7275 54.7974C54.3771 54.6269 54.9598 54.2637 55.3991 53.7557C55.8384 53.2477 56.1137 52.6186 56.1888 51.9512L56.8749 45.871C56.9545 45.1687 57.2555 44.5099 57.7343 43.9899L61.8794 39.4893C62.3349 38.9951 62.6299 38.3746 62.7257 37.7094C62.8214 37.0442 62.7134 36.3656 62.4158 35.763L59.7002 30.2726ZM31.734 55.8764C18.9262 55.8764 8.54266 45.4925 8.54266 32.6829C8.54266 19.8733 18.9262 9.48837 31.734 9.48837C44.5418 9.48837 54.9243 19.8733 54.9243 32.6829C54.9243 45.4925 44.5418 55.8764 31.734 55.8764Z" fill="#F3D3D5"/>
<path d="M31.734 56.5944C26.2031 56.5951 20.843 54.6779 16.567 51.1692C12.291 47.6606 9.36365 42.7777 8.28373 37.3524C7.20382 31.9272 8.03813 26.2953 10.6445 21.4163C13.2509 16.5373 17.4682 12.7131 22.5777 10.5953C27.6872 8.4774 33.3729 8.19692 38.666 9.8016C43.9591 11.4063 48.5321 14.7968 51.6059 19.3956C54.6797 23.9944 56.0642 29.5168 55.5233 35.022C54.9825 40.5272 52.5498 45.6745 48.6398 49.587C46.4252 51.8151 43.7907 53.5817 40.8888 54.7845C37.9869 55.9873 34.8752 56.6025 31.734 56.5944ZM31.734 10.2063C19.3425 10.2063 9.26051 20.2897 9.26051 32.6829C9.26051 45.0761 19.3456 55.1584 31.734 55.1584C44.1224 55.1584 54.2064 45.0761 54.2064 32.6829C54.2064 20.2897 44.1255 10.2063 31.734 10.2063Z" fill="#1E243A"/>
<path d="M39.6029 64.1405C39.1808 64.1411 38.7612 64.0746 38.3599 63.9436L32.5441 62.041C32.0176 61.8676 31.4493 61.8676 30.9228 62.041L25.108 63.9436C24.331 64.1942 23.4965 64.2051 22.7132 63.975C21.9298 63.7449 21.2338 63.2843 20.7157 62.6533L16.8515 57.9096C16.5027 57.4785 16.0245 57.171 15.4875 57.0326L9.56714 55.488C8.77824 55.2786 8.07058 54.8367 7.53616 54.2197C7.00173 53.6027 6.66528 52.8392 6.57054 52.0284L5.88447 45.9472C5.82346 45.3964 5.58727 44.8797 5.21069 44.4733L1.0655 39.9726C0.514625 39.37 0.157824 38.6156 0.0414981 37.8074C-0.0748274 36.9992 0.0546961 36.1747 0.413253 35.4412L3.12375 29.9549C3.37042 29.4583 3.4513 28.8957 3.35449 28.3497L2.29922 22.3218C2.16179 21.5169 2.26974 20.6893 2.60903 19.9466C2.94831 19.2039 3.50323 18.5806 4.20158 18.1576L9.44613 15.0077C9.92326 14.7222 10.2958 14.2907 10.5086 13.7769L12.8796 8.13574C13.1987 7.38433 13.7366 6.74639 14.4232 6.30497C15.1099 5.86354 15.9135 5.63908 16.7294 5.6608L22.8457 5.84747C23.3998 5.86499 23.945 5.70469 24.4014 5.39002L29.445 1.92735C30.1197 1.46773 30.9171 1.22192 31.7335 1.22192C32.5498 1.22192 33.3472 1.46773 34.0219 1.92735L39.0665 5.39002C39.523 5.70456 40.0682 5.86484 40.6222 5.84747L46.7375 5.6608C47.5536 5.63916 48.3573 5.86364 49.0441 6.30504C49.7309 6.74644 50.269 7.38433 50.5883 8.13574L52.9594 13.7769C53.1721 14.2904 53.5442 14.7219 54.0208 15.0077L59.2664 18.1576C59.9645 18.5808 60.5191 19.2043 60.8582 19.9469C61.1973 20.6896 61.3051 21.517 61.1677 22.3218L60.1135 28.3497C60.0167 28.8957 60.0975 29.4583 60.3442 29.9549L63.0537 35.4412C63.4122 36.1747 63.5419 36.9991 63.4257 37.8072C63.3096 38.6153 62.9531 39.3698 62.4025 39.9726L58.2573 44.4733C57.8807 44.8797 57.6445 45.3964 57.5835 45.9472L56.8974 52.0284C56.8025 52.8392 56.4658 53.6028 55.9312 54.2198C55.3966 54.8368 54.6888 55.2786 53.8998 55.488L47.9794 57.0326C47.4427 57.1716 46.9646 57.4789 46.6154 57.9096L42.7513 62.6533C42.3693 63.1188 41.8887 63.4937 41.3442 63.7509C40.7998 64.0081 40.205 64.1412 39.6029 64.1405ZM31.734 60.4748C32.161 60.4763 32.585 60.5456 32.9903 60.6799L38.806 62.5815C39.3071 62.7433 39.8452 62.7505 40.3504 62.6021C40.8556 62.4538 41.3045 62.1567 41.6385 61.7497L45.5028 57.0049C46.0432 56.3348 46.7844 55.856 47.6174 55.6387L53.5378 54.1002C54.0467 53.9654 54.5032 53.6805 54.848 53.2827C55.1927 52.8848 55.4098 52.3923 55.4709 51.8694L56.157 45.7882C56.2509 44.9339 56.6169 44.1324 57.201 43.5019L61.3462 39.0013C61.7013 38.6127 61.9313 38.1261 62.0063 37.605C62.0813 37.0838 61.9978 36.5522 61.7666 36.0792L59.0572 30.5928C58.6744 29.8232 58.5489 28.9509 58.6993 28.1046L59.7515 22.0746C59.8398 21.5551 59.7697 21.0209 59.5502 20.5418C59.3307 20.0626 58.972 19.6607 58.5208 19.3884L53.2753 16.2386C52.5396 15.7967 51.9646 15.1311 51.6344 14.339L49.2634 8.69781C49.0573 8.21347 48.7103 7.80229 48.2675 7.51769C47.8248 7.23309 47.3067 7.08821 46.7806 7.10186L40.6643 7.28751C39.8056 7.31568 38.9606 7.06763 38.2533 6.5798L33.2087 3.1161C32.7733 2.81987 32.259 2.66145 31.7324 2.66145C31.2059 2.66145 30.6915 2.81987 30.2562 3.1161L25.2126 6.5798C24.505 7.06764 23.6596 7.31568 22.8006 7.28751L16.6854 7.10186C16.159 7.08786 15.6406 7.23258 15.1977 7.51722C14.7547 7.80185 14.4076 8.21322 14.2015 8.69781L11.8305 14.339C11.4989 15.1319 10.922 15.7976 10.1845 16.2386L4.93893 19.3884C4.48797 19.6609 4.12942 20.0629 3.90995 20.542C3.69047 21.021 3.62021 21.5551 3.70829 22.0746L4.76357 28.1025C4.91341 28.9489 4.78796 29.821 4.40566 30.5908L1.70646 36.0771C1.47515 36.55 1.39147 37.0816 1.46627 37.6028C1.54108 38.1239 1.77092 38.6105 2.12591 38.9993L6.27212 43.4999C6.85539 44.1309 7.22126 44.9321 7.3161 45.7861L8.00218 51.8673C8.06239 52.39 8.27848 52.8825 8.62233 53.2808C8.96618 53.679 9.42188 53.9645 9.93018 54.1002L15.8506 55.6387C16.6826 55.854 17.4237 56.3303 17.9652 56.9977L21.8294 61.7425C22.1634 62.1497 22.6122 62.4468 23.1175 62.5951C23.6227 62.7435 24.1609 62.7363 24.6619 62.5743L30.4767 60.6727C30.8827 60.5408 31.3071 60.4739 31.734 60.4748Z" fill="#1E243A"/>
<path d="M28.762 31.243C29.7732 30.1818 30.2788 28.7458 30.2788 26.9352C30.2788 25.1792 29.8217 23.8161 28.9076 22.8458C27.9935 21.8755 26.7249 21.3904 25.1019 21.3904C23.4063 21.3904 22.0509 21.9265 21.0357 22.9986C20.0204 24.0708 19.5124 25.5211 19.5117 27.3495C19.5117 29.0241 19.9903 30.3575 20.9475 31.3497C21.9046 32.3418 23.1633 32.8372 24.7235 32.8359C26.4026 32.8359 27.7488 32.3049 28.762 31.243ZM22.7739 27.1988C22.7739 25.1255 23.5195 24.0893 25.0106 24.0899C26.3889 24.0899 27.0781 25.0855 27.0781 27.0767C27.0781 29.1192 26.353 30.1404 24.9029 30.1404C23.4836 30.1404 22.7739 29.1598 22.7739 27.1988Z" fill="#1E243A"/>
<path d="M38.7794 32.5293C37.0838 32.5293 35.7281 33.0654 34.7121 34.1375C33.6962 35.2097 33.1889 36.66 33.1902 38.4884C33.1902 40.1637 33.6688 41.4971 34.626 42.4886C35.5831 43.4801 36.8415 43.9751 38.401 43.9737C40.0856 43.9737 41.4335 43.4377 42.4446 42.3655C43.4558 41.2933 43.9604 39.8529 43.9583 38.0443C43.9583 36.2877 43.504 34.9294 42.5954 33.9693C41.6868 33.0093 40.4148 32.5293 38.7794 32.5293ZM38.5794 41.2793C37.1437 41.2793 36.4241 40.2991 36.4207 38.3387C36.4207 36.2648 37.1607 35.2282 38.6409 35.2289C38.9408 35.223 39.2375 35.2911 39.5047 35.4273C39.772 35.5634 40.0015 35.7634 40.1731 36.0094C40.5607 36.5304 40.7546 37.2659 40.7546 38.2156C40.7546 40.2581 40.0295 41.2793 38.5794 41.2793Z" fill="#1E243A"/>
<path d="M36.9867 21.7002L22.7124 43.666H26.4504L40.7545 21.7002H36.9867Z" fill="#1E243A"/>
<path d="M157.957 135H125.683C124.876 134.999 124.103 134.679 123.533 134.108C122.963 133.538 122.642 132.765 122.641 131.958V69.6443C122.644 66.7822 123.602 64.003 125.363 61.7466L139.425 43.7809C139.709 43.4174 140.073 43.1234 140.488 42.9213C140.903 42.7191 141.358 42.614 141.82 42.614C142.282 42.614 142.737 42.7191 143.152 42.9213C143.567 43.1234 143.931 43.4174 144.215 43.7809L158.277 61.7497C160.038 64.0061 160.996 66.7853 160.999 69.6474V131.961C160.997 132.767 160.676 133.54 160.106 134.109C159.536 134.679 158.763 134.999 157.957 135ZM141.821 44.0486C141.577 44.0478 141.336 44.1028 141.116 44.2095C140.897 44.3162 140.705 44.4717 140.555 44.664L126.494 62.6338C124.931 64.6368 124.081 67.1037 124.077 69.6443V131.958C124.077 132.384 124.246 132.792 124.547 133.093C124.849 133.395 125.257 133.564 125.683 133.564H157.957C158.383 133.564 158.791 133.395 159.093 133.093C159.394 132.792 159.563 132.384 159.563 131.958V69.6443C159.56 67.1038 158.709 64.6369 157.147 62.6338L143.085 44.664C142.935 44.4717 142.743 44.3162 142.524 44.2095C142.305 44.1028 142.064 44.0478 141.821 44.0486Z" fill="#1E243A"/>
<path d="M153.666 127.923H129.977C129.786 127.923 129.604 127.847 129.469 127.713C129.334 127.578 129.259 127.395 129.259 127.205V70.6032C129.259 70.4128 129.334 70.2302 129.469 70.0955C129.604 69.9609 129.786 69.8853 129.977 69.8853H153.666C153.857 69.8853 154.039 69.9609 154.174 70.0955C154.309 70.2302 154.384 70.4128 154.384 70.6032V127.205C154.384 127.395 154.309 127.578 154.174 127.713C154.039 127.847 153.857 127.923 153.666 127.923ZM130.695 126.487H152.949V71.3212H130.695V126.487Z" fill="#1E243A"/>
<path d="M141.821 60.4716C141.106 60.4716 140.408 60.2598 139.814 59.8628C139.22 59.4659 138.757 58.9017 138.484 58.2416C138.21 57.5816 138.139 56.8552 138.278 56.1545C138.417 55.4538 138.761 54.8101 139.267 54.3049C139.772 53.7997 140.415 53.4556 141.116 53.3162C141.817 53.1769 142.543 53.2484 143.203 53.5218C143.863 53.7952 144.427 54.2582 144.824 54.8523C145.221 55.4463 145.432 56.1448 145.432 56.8592C145.431 57.8169 145.05 58.7349 144.373 59.4121C143.696 60.0893 142.778 60.4703 141.821 60.4716ZM141.821 54.6828C141.39 54.6828 140.969 54.8104 140.612 55.0496C140.254 55.2887 139.975 55.6286 139.81 56.0263C139.645 56.424 139.602 56.8616 139.686 57.2838C139.77 57.706 139.977 58.0938 140.282 58.3982C140.586 58.7026 140.974 58.9099 141.396 58.9939C141.818 59.0779 142.256 59.0348 142.653 58.87C143.051 58.7053 143.391 58.4263 143.63 58.0684C143.869 57.7105 143.997 57.2897 143.997 56.8592C143.996 56.2823 143.766 55.7291 143.358 55.3211C142.95 54.9131 142.397 54.6836 141.821 54.6828Z" fill="#1E243A"/>
<path d="M135.936 115.948C135.746 115.948 135.563 115.872 135.428 115.738C135.294 115.603 135.218 115.421 135.218 115.23V99.5373C135.218 99.3469 135.294 99.1643 135.428 99.0296C135.563 98.895 135.746 98.8193 135.936 98.8193C136.126 98.8193 136.309 98.895 136.444 99.0296C136.578 99.1643 136.654 99.3469 136.654 99.5373V115.23C136.654 115.421 136.578 115.603 136.444 115.738C136.309 115.872 136.126 115.948 135.936 115.948Z" fill="#1E243A"/>
<path d="M141.782 115.948C141.591 115.948 141.409 115.872 141.274 115.738C141.139 115.603 141.064 115.42 141.064 115.23V92.7678C141.064 92.5774 141.139 92.3947 141.274 92.2601C141.409 92.1255 141.591 92.0498 141.782 92.0498C141.972 92.0498 142.155 92.1255 142.289 92.2601C142.424 92.3947 142.499 92.5774 142.499 92.7678V115.23C142.499 115.42 142.424 115.603 142.289 115.738C142.155 115.872 141.972 115.948 141.782 115.948Z" fill="#1E243A"/>
<path d="M147.73 115.948C147.539 115.948 147.357 115.872 147.222 115.738C147.087 115.603 147.012 115.421 147.012 115.23V82.6137C147.012 82.4233 147.087 82.2407 147.222 82.106C147.357 81.9714 147.539 81.8958 147.73 81.8958C147.92 81.8958 148.103 81.9714 148.237 82.106C148.372 82.2407 148.448 82.4233 148.448 82.6137V115.23C148.448 115.421 148.372 115.603 148.237 115.738C148.103 115.872 147.92 115.948 147.73 115.948Z" fill="#1E243A"/>
<path d="M71.2579 135H8.54264C8.35225 135 8.16966 134.924 8.03503 134.79C7.9004 134.655 7.82477 134.472 7.82477 134.282V94.0756C7.82477 93.8852 7.9004 93.7026 8.03503 93.568C8.16966 93.4333 8.35225 93.3577 8.54264 93.3577H71.2579C71.4483 93.3577 71.6309 93.4333 71.7655 93.568C71.9001 93.7026 71.9758 93.8852 71.9758 94.0756V134.282C71.9758 134.472 71.9001 134.655 71.7655 134.79C71.6309 134.924 71.4483 135 71.2579 135ZM9.26051 133.564H70.54V94.7936H9.26051V133.564Z" fill="#1E243A"/>
<path d="M67.4932 131.151H12.3084C12.118 131.151 11.9354 131.075 11.8008 130.94C11.6662 130.806 11.5905 130.623 11.5905 130.433V97.926C11.5905 97.7356 11.6662 97.5529 11.8008 97.4183C11.9354 97.2836 12.118 97.208 12.3084 97.208H67.4932C67.6836 97.208 67.8662 97.2836 68.0008 97.4183C68.1354 97.5529 68.2111 97.7356 68.2111 97.926V130.433C68.2111 130.527 68.1925 130.62 68.1564 130.707C68.1204 130.794 68.0675 130.874 68.0008 130.94C67.9341 131.007 67.855 131.06 67.7679 131.096C67.6808 131.132 67.5875 131.151 67.4932 131.151ZM13.0263 129.715H66.7753V98.6439H13.0263V129.715Z" fill="#1E243A"/>
<path d="M18.4103 121.589C18.2199 121.589 18.0373 121.514 17.9027 121.379C17.7681 121.244 17.6924 121.062 17.6924 120.871V97.8962C17.6924 97.7058 17.7681 97.5232 17.9027 97.3885C18.0373 97.2539 18.2199 97.1782 18.4103 97.1782C18.6007 97.1782 18.7833 97.2539 18.9179 97.3885C19.0525 97.5232 19.1282 97.7058 19.1282 97.8962V120.871C19.1282 121.062 19.0525 121.244 18.9179 121.379C18.7833 121.514 18.6007 121.589 18.4103 121.589Z" fill="#1E243A"/>
<path d="M24.5635 125.282C24.3731 125.282 24.1905 125.206 24.0559 125.071C23.9212 124.937 23.8456 124.754 23.8456 124.564V97.8962C23.8456 97.7058 23.9212 97.5232 24.0559 97.3885C24.1905 97.2539 24.3731 97.1782 24.5635 97.1782C24.7539 97.1782 24.9365 97.2539 25.0711 97.3885C25.2057 97.5232 25.2813 97.7058 25.2813 97.8962V124.564C25.2813 124.754 25.2057 124.937 25.0711 125.071C24.9365 125.206 24.7539 125.282 24.5635 125.282Z" fill="#1E243A"/>
<path d="M30.7167 116.666C30.5263 116.666 30.3437 116.59 30.209 116.456C30.0744 116.321 29.9988 116.138 29.9988 115.948V97.8962C29.9988 97.7058 30.0744 97.5232 30.209 97.3885C30.3437 97.2539 30.5263 97.1782 30.7167 97.1782C30.907 97.1782 31.0897 97.2539 31.2243 97.3885C31.3589 97.5232 31.4345 97.7058 31.4345 97.8962V115.948C31.4345 116.138 31.3589 116.321 31.2243 116.456C31.0897 116.59 30.907 116.666 30.7167 116.666Z" fill="#1E243A"/>
<path d="M36.8698 125.897C36.6794 125.897 36.4968 125.821 36.3622 125.687C36.2276 125.552 36.1519 125.369 36.1519 125.179V97.8962C36.1519 97.7058 36.2276 97.5232 36.3622 97.3885C36.4968 97.2539 36.6794 97.1782 36.8698 97.1782C37.0602 97.1782 37.2428 97.2539 37.3775 97.3885C37.5121 97.5232 37.5877 97.7058 37.5877 97.8962V125.179C37.5877 125.369 37.5121 125.552 37.3775 125.687C37.2428 125.821 37.0602 125.897 36.8698 125.897Z" fill="#1E243A"/>
<path d="M42.9204 117.794C42.7301 117.794 42.5475 117.719 42.4128 117.584C42.2782 117.449 42.2026 117.267 42.2026 117.076V97.8962C42.2026 97.7058 42.2782 97.5232 42.4128 97.3885C42.5475 97.2539 42.7301 97.1782 42.9204 97.1782C43.1108 97.1782 43.2934 97.2539 43.4281 97.3885C43.5627 97.5232 43.6383 97.7058 43.6383 97.8962V117.076C43.6383 117.267 43.5627 117.449 43.4281 117.584C43.2934 117.719 43.1108 117.794 42.9204 117.794Z" fill="#1E243A"/>
<path d="M49.0736 125.897C48.8832 125.897 48.7007 125.821 48.566 125.687C48.4314 125.552 48.3558 125.369 48.3558 125.179V97.8962C48.3558 97.7058 48.4314 97.5232 48.566 97.3885C48.7007 97.2539 48.8832 97.1782 49.0736 97.1782C49.264 97.1782 49.4466 97.2539 49.5813 97.3885C49.7159 97.5232 49.7915 97.7058 49.7915 97.8962V125.179C49.7915 125.369 49.7159 125.552 49.5813 125.687C49.4466 125.821 49.264 125.897 49.0736 125.897Z" fill="#1E243A"/>
<path d="M55.2268 131.128C55.0364 131.128 54.8538 131.052 54.7192 130.918C54.5846 130.783 54.509 130.6 54.509 130.41V97.8962C54.509 97.7058 54.5846 97.5232 54.7192 97.3885C54.8538 97.2539 55.0364 97.1782 55.2268 97.1782C55.4172 97.1782 55.5998 97.2539 55.7345 97.3885C55.8691 97.5232 55.9447 97.7058 55.9447 97.8962V130.41C55.9447 130.6 55.8691 130.783 55.7345 130.918C55.5998 131.052 55.4172 131.128 55.2268 131.128Z" fill="#1E243A"/>
<path d="M61.38 123.743C61.1896 123.743 61.007 123.667 60.8724 123.533C60.7378 123.398 60.6621 123.216 60.6621 123.025V97.8962C60.6621 97.7058 60.7378 97.5232 60.8724 97.3885C61.007 97.2539 61.1896 97.1782 61.38 97.1782C61.5704 97.1782 61.753 97.2539 61.8876 97.3885C62.0223 97.5232 62.0979 97.7058 62.0979 97.8962V123.025C62.0979 123.216 62.0223 123.398 61.8876 123.533C61.753 123.667 61.5704 123.743 61.38 123.743Z" fill="#1E243A"/>
<path d="M67.5332 131.128C67.3428 131.128 67.1602 131.052 67.0256 130.918C66.8909 130.783 66.8153 130.6 66.8153 130.41V97.8962C66.8153 97.7058 66.8909 97.5232 67.0256 97.3885C67.1602 97.2539 67.3428 97.1782 67.5332 97.1782C67.7236 97.1782 67.9062 97.2539 68.0408 97.3885C68.1754 97.5232 68.251 97.7058 68.251 97.8962V130.41C68.251 130.6 68.1754 130.783 68.0408 130.918C67.9062 131.052 67.7236 131.128 67.5332 131.128Z" fill="#1E243A"/>
<path d="M12.2571 131.128C12.0667 131.128 11.8841 131.052 11.7495 130.918C11.6149 130.783 11.5392 130.6 11.5392 130.41V97.8962C11.5392 97.7058 11.6149 97.5232 11.7495 97.3885C11.8841 97.2539 12.0667 97.1782 12.2571 97.1782C12.4475 97.1782 12.6301 97.2539 12.7647 97.3885C12.8994 97.5232 12.975 97.7058 12.975 97.8962V130.41C12.975 130.6 12.8994 130.783 12.7647 130.918C12.6301 131.052 12.4475 131.128 12.2571 131.128Z" fill="#1E243A"/>
<path d="M69.3791 20.9709H68.1485C67.9581 20.9709 67.7755 20.8952 67.6409 20.7606C67.5063 20.6259 67.4306 20.4433 67.4306 20.2529C67.4306 20.0625 67.5063 19.8798 67.6409 19.7452C67.7755 19.6106 67.9581 19.5349 68.1485 19.5349H69.3791C69.5695 19.5349 69.7521 19.6106 69.8868 19.7452C70.0214 19.8798 70.097 20.0625 70.097 20.2529C70.097 20.4433 70.0214 20.6259 69.8868 20.7606C69.7521 20.8952 69.5695 20.9709 69.3791 20.9709Z" fill="#1E243A"/>
<path d="M135.936 20.9709H133.27C133.079 20.9709 132.897 20.8952 132.762 20.7606C132.627 20.6259 132.552 20.4433 132.552 20.2529C132.552 20.0625 132.627 19.8798 132.762 19.7452C132.897 19.6106 133.079 19.5349 133.27 19.5349H135.936C136.126 19.5349 136.309 19.6106 136.444 19.7452C136.578 19.8798 136.654 20.0625 136.654 20.2529C136.654 20.4433 136.578 20.6259 136.444 20.7606C136.309 20.8952 136.126 20.9709 135.936 20.9709ZM128.552 20.9709H125.886C125.695 20.9709 125.513 20.8952 125.378 20.7606C125.244 20.6259 125.168 20.4433 125.168 20.2529C125.168 20.0625 125.244 19.8798 125.378 19.7452C125.513 19.6106 125.695 19.5349 125.886 19.5349H128.552C128.743 19.5349 128.925 19.6106 129.06 19.7452C129.194 19.8798 129.27 20.0625 129.27 20.2529C129.27 20.4433 129.194 20.6259 129.06 20.7606C128.925 20.8952 128.743 20.9709 128.552 20.9709ZM121.168 20.9709H118.502C118.312 20.9709 118.129 20.8952 117.994 20.7606C117.86 20.6259 117.784 20.4433 117.784 20.2529C117.784 20.0625 117.86 19.8798 117.994 19.7452C118.129 19.6106 118.312 19.5349 118.502 19.5349H121.168C121.359 19.5349 121.541 19.6106 121.676 19.7452C121.811 19.8798 121.886 20.0625 121.886 20.2529C121.886 20.4433 121.811 20.6259 121.676 20.7606C121.541 20.8952 121.359 20.9709 121.168 20.9709ZM113.785 20.9709H111.118C110.928 20.9709 110.745 20.8952 110.611 20.7606C110.476 20.6259 110.4 20.4433 110.4 20.2529C110.4 20.0625 110.476 19.8798 110.611 19.7452C110.745 19.6106 110.928 19.5349 111.118 19.5349H113.785C113.975 19.5349 114.158 19.6106 114.292 19.7452C114.427 19.8798 114.502 20.0625 114.502 20.2529C114.502 20.4433 114.427 20.6259 114.292 20.7606C114.158 20.8952 113.975 20.9709 113.785 20.9709ZM106.401 20.9709H103.734C103.544 20.9709 103.361 20.8952 103.227 20.7606C103.092 20.6259 103.017 20.4433 103.017 20.2529C103.017 20.0625 103.092 19.8798 103.227 19.7452C103.361 19.6106 103.544 19.5349 103.734 19.5349H106.401C106.591 19.5349 106.774 19.6106 106.908 19.7452C107.043 19.8798 107.119 20.0625 107.119 20.2529C107.119 20.4433 107.043 20.6259 106.908 20.7606C106.774 20.8952 106.591 20.9709 106.401 20.9709ZM99.0169 20.9709H96.3506C96.1602 20.9709 95.9776 20.8952 95.843 20.7606C95.7083 20.6259 95.6327 20.4433 95.6327 20.2529C95.6327 20.0625 95.7083 19.8798 95.843 19.7452C95.9776 19.6106 96.1602 19.5349 96.3506 19.5349H99.0169C99.2073 19.5349 99.3899 19.6106 99.5246 19.7452C99.6592 19.8798 99.7348 20.0625 99.7348 20.2529C99.7348 20.4433 99.6592 20.6259 99.5246 20.7606C99.3899 20.8952 99.2073 20.9709 99.0169 20.9709ZM91.6331 20.9709H88.9667C88.7764 20.9709 88.5938 20.8952 88.4591 20.7606C88.3245 20.6259 88.2489 20.4433 88.2489 20.2529C88.2489 20.0625 88.3245 19.8798 88.4591 19.7452C88.5938 19.6106 88.7764 19.5349 88.9667 19.5349H91.6331C91.8235 19.5349 92.0061 19.6106 92.1408 19.7452C92.2754 19.8798 92.351 20.0625 92.351 20.2529C92.351 20.4433 92.2754 20.6259 92.1408 20.7606C92.0061 20.8952 91.8235 20.9709 91.6331 20.9709ZM84.2493 20.9709H81.5829C81.3925 20.9709 81.21 20.8952 81.0753 20.7606C80.9407 20.6259 80.8651 20.4433 80.8651 20.2529C80.8651 20.0625 80.9407 19.8798 81.0753 19.7452C81.21 19.6106 81.3925 19.5349 81.5829 19.5349H84.2493C84.4397 19.5349 84.6223 19.6106 84.7569 19.7452C84.8916 19.8798 84.9672 20.0625 84.9672 20.2529C84.9672 20.4433 84.8916 20.6259 84.7569 20.7606C84.6223 20.8952 84.4397 20.9709 84.2493 20.9709ZM76.8655 20.9709H74.1991C74.0087 20.9709 73.8261 20.8952 73.6915 20.7606C73.5569 20.6259 73.4812 20.4433 73.4812 20.2529C73.4812 20.0625 73.5569 19.8798 73.6915 19.7452C73.8261 19.6106 74.0087 19.5349 74.1991 19.5349H76.8655C77.0559 19.5349 77.2385 19.6106 77.3731 19.7452C77.5078 19.8798 77.5834 20.0625 77.5834 20.2529C77.5834 20.4433 77.5078 20.6259 77.3731 20.7606C77.2385 20.8952 77.0559 20.9709 76.8655 20.9709Z" fill="#1E243A"/>
<path d="M141.782 22.3042C141.591 22.3042 141.409 22.2286 141.274 22.0939C141.139 21.9593 141.064 21.7767 141.064 21.5863V20.9709H140.448C140.258 20.9709 140.075 20.8952 139.941 20.7606C139.806 20.6259 139.73 20.4433 139.73 20.2529C139.73 20.0625 139.806 19.8798 139.941 19.7452C140.075 19.6106 140.258 19.5349 140.448 19.5349H141.782C141.972 19.5349 142.155 19.6106 142.289 19.7452C142.424 19.8798 142.499 20.0625 142.499 20.2529V21.5863C142.499 21.7767 142.424 21.9593 142.289 22.0939C142.155 22.2286 141.972 22.3042 141.782 22.3042Z" fill="#1E243A"/>
<path d="M141.782 31.3302C141.591 31.3302 141.409 31.2545 141.274 31.1199C141.139 30.9852 141.064 30.8026 141.064 30.6122V27.33C141.064 27.1396 141.139 26.957 141.274 26.8223C141.409 26.6877 141.591 26.6121 141.782 26.6121C141.972 26.6121 142.155 26.6877 142.289 26.8223C142.424 26.957 142.499 27.1396 142.499 27.33V30.6122C142.499 30.8026 142.424 30.9852 142.289 31.1199C142.155 31.2545 141.972 31.3302 141.782 31.3302Z" fill="#1E243A"/>
<path d="M141.782 38.4072C141.591 38.4072 141.409 38.3316 141.274 38.1969C141.139 38.0623 141.064 37.8797 141.064 37.6893V36.4584C141.064 36.268 141.139 36.0854 141.274 35.9508C141.409 35.8161 141.591 35.7405 141.782 35.7405C141.972 35.7405 142.155 35.8161 142.289 35.9508C142.424 36.0854 142.499 36.268 142.499 36.4584V37.6893C142.499 37.8797 142.424 38.0623 142.289 38.1969C142.155 38.3316 141.972 38.4072 141.782 38.4072Z" fill="#1E243A"/>
<path d="M61.2774 85.0754C61.0871 85.0754 60.9045 84.9998 60.7698 84.8651C60.6352 84.7305 60.5596 84.5479 60.5596 84.3574V79.7419C60.5596 79.5515 60.6352 79.3689 60.7698 79.2342C60.9045 79.0996 61.0871 79.0239 61.2774 79.0239C61.4678 79.0239 61.6505 79.0996 61.7851 79.2342C61.9197 79.3689 61.9953 79.5515 61.9953 79.7419V84.3574C61.9953 84.5479 61.9197 84.7305 61.7851 84.8651C61.6505 84.9998 61.4678 85.0754 61.2774 85.0754Z" fill="#1E243A"/>
<path d="M63.6362 82.8188H59.0213C58.8309 82.8188 58.6483 82.7431 58.5137 82.6085C58.379 82.4738 58.3034 82.2912 58.3034 82.1008C58.3034 81.9104 58.379 81.7278 58.5137 81.5931C58.6483 81.4585 58.8309 81.3828 59.0213 81.3828H63.6362C63.8266 81.3828 64.0092 81.4585 64.1438 81.5931C64.2784 81.7278 64.354 81.9104 64.354 82.1008C64.354 82.2912 64.2784 82.4738 64.1438 82.6085C64.0092 82.7431 63.8266 82.8188 63.6362 82.8188Z" fill="#1E243A"/>
<path d="M125.578 35.8432C125.388 35.8432 125.205 35.7676 125.071 35.6329C124.936 35.4983 124.86 35.3157 124.86 35.1252V30.5097C124.86 30.3193 124.936 30.1367 125.071 30.002C125.205 29.8674 125.388 29.7917 125.578 29.7917C125.769 29.7917 125.951 29.8674 126.086 30.002C126.22 30.1367 126.296 30.3193 126.296 30.5097V35.1252C126.296 35.3157 126.22 35.4983 126.086 35.6329C125.951 35.7676 125.769 35.8432 125.578 35.8432Z" fill="#1E243A"/>
<path d="M127.937 33.5868H123.322C123.132 33.5868 122.949 33.5112 122.814 33.3765C122.68 33.2419 122.604 33.0593 122.604 32.8689C122.604 32.6784 122.68 32.4958 122.814 32.3612C122.949 32.2265 123.132 32.1509 123.322 32.1509H127.937C128.127 32.1509 128.31 32.2265 128.445 32.3612C128.579 32.4958 128.655 32.6784 128.655 32.8689C128.655 33.0593 128.579 33.2419 128.445 33.3765C128.31 33.5112 128.127 33.5868 127.937 33.5868Z" fill="#1E243A"/>
<path d="M157.882 11.0219C157.692 11.0219 157.509 10.9463 157.375 10.8116C157.24 10.677 157.164 10.4944 157.164 10.304V5.68843C157.164 5.49801 157.24 5.31539 157.375 5.18075C157.509 5.0461 157.692 4.97046 157.882 4.97046C158.073 4.97046 158.255 5.0461 158.39 5.18075C158.525 5.31539 158.6 5.49801 158.6 5.68843V10.304C158.6 10.4944 158.525 10.677 158.39 10.8116C158.255 10.9463 158.073 11.0219 157.882 11.0219Z" fill="#1E243A"/>
<path d="M160.241 8.76553H155.626C155.436 8.76553 155.253 8.68989 155.119 8.55524C154.984 8.4206 154.908 8.23798 154.908 8.04756C154.908 7.85714 154.984 7.67453 155.119 7.53988C155.253 7.40523 155.436 7.32959 155.626 7.32959H160.241C160.431 7.32959 160.614 7.40523 160.749 7.53988C160.883 7.67453 160.959 7.85714 160.959 8.04756C160.959 8.23798 160.883 8.4206 160.749 8.55524C160.614 8.68989 160.431 8.76553 160.241 8.76553Z" fill="#1E243A"/>
<path d="M107.221 103.435C107.031 103.435 106.848 103.359 106.714 103.225C106.579 103.09 106.503 102.907 106.503 102.717V98.1015C106.503 97.9111 106.579 97.7285 106.714 97.5938C106.848 97.4592 107.031 97.3835 107.221 97.3835C107.412 97.3835 107.594 97.4592 107.729 97.5938C107.863 97.7285 107.939 97.9111 107.939 98.1015V102.717C107.939 102.907 107.863 103.09 107.729 103.225C107.594 103.359 107.412 103.435 107.221 103.435Z" fill="#1E243A"/>
<path d="M109.58 101.178H104.965C104.775 101.178 104.592 101.103 104.457 100.968C104.323 100.833 104.247 100.651 104.247 100.46C104.247 100.27 104.323 100.087 104.457 99.9527C104.592 99.8181 104.775 99.7424 104.965 99.7424H109.58C109.77 99.7424 109.953 99.8181 110.088 99.9527C110.222 100.087 110.298 100.27 110.298 100.46C110.298 100.651 110.222 100.833 110.088 100.968C109.953 101.103 109.77 101.178 109.58 101.178Z" fill="#1E243A"/>
<path d="M96.3424 57.4305C96.3392 57.2964 96.3627 57.1631 96.4114 57.0382C96.46 56.9133 96.5329 56.7992 96.6259 56.7026C96.7188 56.606 96.83 56.5288 96.953 56.4754C97.0759 56.422 97.2082 56.3935 97.3423 56.3915C97.4759 56.3861 97.6094 56.4074 97.7348 56.454C97.8601 56.5007 97.975 56.5718 98.0727 56.6632C98.1704 56.7546 98.249 56.8645 98.3039 56.9865C98.3588 57.1086 98.3888 57.2403 98.3924 57.3741C98.3967 57.5085 98.3739 57.6424 98.3253 57.7678C98.2767 57.8932 98.2034 58.0076 98.1097 58.104C98.016 58.2005 97.9039 58.2771 97.78 58.3293C97.6561 58.3816 97.5229 58.4083 97.3884 58.4079H97.3628C97.0984 58.4118 96.8431 58.3114 96.6521 58.1285C96.4612 57.9456 96.3499 57.6948 96.3424 57.4305ZM93.3058 56.8633C93.2087 56.7699 93.131 56.6583 93.0771 56.5348C93.0232 56.4114 92.9942 56.2785 92.9916 56.1439C92.989 56.0092 93.013 55.8753 93.0622 55.7499C93.1113 55.6245 93.1847 55.51 93.2781 55.413C93.3715 55.316 93.4832 55.2384 93.6066 55.1846C93.7301 55.1307 93.863 55.1018 93.9976 55.0993C94.1323 55.0968 94.2661 55.1209 94.3914 55.1701C94.5168 55.2194 94.6312 55.2928 94.7282 55.3863C94.8252 55.4798 94.9028 55.5915 94.9566 55.7149C95.0104 55.8384 95.0394 55.9713 95.0419 56.1059C95.0443 56.2406 95.0203 56.3745 94.971 56.4998C94.9218 56.6252 94.8483 56.7396 94.7549 56.8366C94.6592 56.9359 94.5445 57.0148 94.4176 57.0688C94.2908 57.1227 94.1543 57.1505 94.0165 57.1505C93.7514 57.1502 93.4967 57.0473 93.3058 56.8633ZM99.9461 56.7063C99.8479 56.6141 99.7688 56.5034 99.7134 56.3806C99.6579 56.2578 99.6272 56.1252 99.623 55.9906C99.6189 55.8559 99.6413 55.7217 99.6889 55.5956C99.7366 55.4696 99.8087 55.3542 99.901 55.2561C99.9932 55.1578 100.104 55.0787 100.227 55.0233C100.349 54.9679 100.482 54.9372 100.617 54.933C100.751 54.9288 100.886 54.9512 101.012 54.9989C101.138 55.0466 101.253 55.1186 101.351 55.2109C101.449 55.3032 101.528 55.4139 101.584 55.5367C101.639 55.6595 101.67 55.792 101.674 55.9267C101.678 56.0614 101.656 56.1956 101.608 56.3216C101.561 56.4477 101.488 56.563 101.396 56.6612C101.3 56.7633 101.184 56.8446 101.056 56.9002C100.927 56.9557 100.789 56.9844 100.649 56.9843C100.388 56.9844 100.136 56.885 99.9461 56.7063ZM91.5634 52.8591C91.5601 52.5861 91.6647 52.3228 91.8544 52.1265C92.0441 51.9302 92.3037 51.8167 92.5766 51.8108C92.8497 51.8111 93.1116 51.9188 93.3059 52.1108C93.5001 52.3027 93.611 52.5634 93.6145 52.8365C93.6197 53.1105 93.5161 53.3753 93.3263 53.573C93.1366 53.7706 92.8762 53.885 92.6023 53.8909H92.5889C92.3175 53.8856 92.0588 53.775 91.8675 53.5824C91.6761 53.3899 91.5671 53.1305 91.5634 52.8591ZM100.884 52.6139C100.88 52.4798 100.901 52.346 100.948 52.2203C100.995 52.0945 101.067 51.9793 101.158 51.8813C101.25 51.7833 101.36 51.7044 101.482 51.6492C101.605 51.594 101.737 51.5635 101.871 51.5595C102.005 51.5532 102.139 51.5735 102.265 51.6192C102.391 51.6649 102.507 51.7351 102.605 51.8258C102.704 51.9165 102.784 52.0258 102.84 52.1476C102.897 52.2693 102.928 52.4009 102.933 52.5349C102.94 52.6694 102.92 52.8038 102.873 52.9301C102.827 53.0565 102.755 53.1722 102.663 53.2704C102.571 53.3686 102.46 53.4473 102.337 53.5017C102.214 53.5561 102.081 53.5852 101.947 53.5873H101.908C101.644 53.5902 101.39 53.4901 101.199 53.3083C101.008 53.1266 100.895 52.8775 100.884 52.6139ZM93.2135 50.22C93.02 50.0289 92.9103 49.7687 92.9086 49.4968C92.9069 49.2248 93.0132 48.9633 93.2042 48.7697C93.3953 48.5762 93.6555 48.4665 93.9274 48.4648C94.1993 48.463 94.4608 48.5694 94.6544 48.7605C94.7503 48.8551 94.8267 48.9678 94.8791 49.0919C94.9315 49.2161 94.9589 49.3494 94.9597 49.4842C94.9606 49.619 94.9349 49.7527 94.8841 49.8775C94.8333 50.0023 94.7583 50.1159 94.6636 50.2118C94.5684 50.309 94.4548 50.3862 94.3294 50.439C94.204 50.4919 94.0694 50.5192 93.9334 50.5195C93.7996 50.5194 93.6671 50.4929 93.5436 50.4415C93.4201 50.3901 93.3079 50.3148 93.2135 50.22ZM99.7061 50.0846C99.6069 49.9936 99.5265 49.8839 99.4696 49.7617C99.4127 49.6396 99.3805 49.5075 99.3747 49.3729C99.3689 49.2384 99.3896 49.104 99.4358 48.9774C99.4819 48.8508 99.5525 48.7346 99.6435 48.6353C99.7346 48.5361 99.8443 48.4557 99.9664 48.3988C100.088 48.3419 100.221 48.3097 100.355 48.3039C100.49 48.2981 100.624 48.3188 100.751 48.365C100.877 48.4111 100.993 48.4817 101.093 48.5728C101.192 48.6638 101.272 48.7735 101.329 48.8956C101.386 49.0178 101.418 49.1499 101.424 49.2845C101.43 49.419 101.409 49.5534 101.363 49.68C101.317 49.8066 101.246 49.9228 101.155 50.022C101.059 50.1268 100.942 50.2104 100.812 50.2676C100.682 50.3248 100.542 50.3544 100.399 50.3544C100.143 50.3544 99.8953 50.2581 99.7061 50.0846ZM96.2255 48.104C96.2255 47.832 96.3335 47.5711 96.5258 47.3788C96.7181 47.1864 96.979 47.0784 97.251 47.0784C97.523 47.0784 97.7838 47.1864 97.9761 47.3788C98.1685 47.5711 98.2765 47.832 98.2765 48.104C98.2765 48.3761 98.1685 48.637 97.9761 48.8293C97.7838 49.0217 97.523 49.1297 97.251 49.1297C96.979 49.1297 96.7181 49.0217 96.5258 48.8293C96.3335 48.637 96.2255 48.3761 96.2255 48.104Z" fill="#1E243A"/>
<path d="M100.957 10.3521C100.954 10.218 100.978 10.0847 101.026 9.95967C101.075 9.83468 101.148 9.72056 101.241 9.62389C101.334 9.52721 101.445 9.44988 101.568 9.39637C101.691 9.34285 101.823 9.31421 101.957 9.31208C102.091 9.30701 102.224 9.3285 102.35 9.37531C102.475 9.42212 102.59 9.49332 102.687 9.58479C102.785 9.67626 102.864 9.78618 102.919 9.90821C102.973 10.0302 103.004 10.1619 103.007 10.2957C103.012 10.4301 102.989 10.564 102.94 10.6894C102.892 10.8148 102.818 10.9292 102.725 11.0257C102.631 11.1221 102.519 11.1988 102.395 11.251C102.271 11.3032 102.138 11.3299 102.003 11.3296H101.978C101.713 11.3335 101.458 11.2331 101.267 11.0502C101.076 10.8672 100.965 10.6165 100.957 10.3521ZM97.9207 9.78491C97.8236 9.69151 97.7459 9.5799 97.692 9.45646C97.6381 9.33302 97.6091 9.20017 97.6065 9.0655C97.6039 8.93082 97.6279 8.79696 97.6771 8.67156C97.7262 8.54615 97.7996 8.43165 97.893 8.33461C97.9864 8.23763 98.0981 8.16001 98.2215 8.10618C98.345 8.05236 98.4778 8.02338 98.6125 8.0209C98.7472 8.01843 98.881 8.0425 99.0063 8.09175C99.1317 8.141 99.2461 8.21447 99.3431 8.30795C99.4401 8.40142 99.5177 8.51308 99.5715 8.63656C99.6253 8.76003 99.6543 8.8929 99.6568 9.02757C99.6592 9.16224 99.6351 9.29609 99.5859 9.42146C99.5367 9.54683 99.4632 9.66127 99.3698 9.75824C99.2741 9.85751 99.1594 9.93646 99.0325 9.99039C98.9057 10.0443 98.7692 10.0721 98.6314 10.0721C98.3661 10.0726 98.1111 9.96956 97.9207 9.78491ZM104.561 9.62798C104.463 9.53574 104.384 9.42505 104.328 9.30223C104.273 9.17941 104.242 9.04687 104.238 8.91218C104.234 8.7775 104.256 8.64331 104.304 8.51728C104.352 8.39125 104.424 8.27585 104.516 8.17768C104.608 8.07945 104.719 8.00036 104.842 7.94493C104.964 7.88949 105.097 7.8588 105.232 7.85461C105.366 7.85042 105.5 7.87281 105.626 7.9205C105.752 7.96819 105.868 8.04025 105.966 8.13255C106.064 8.22479 106.143 8.33549 106.199 8.45831C106.254 8.58113 106.285 8.71367 106.289 8.84835C106.293 8.98304 106.271 9.11723 106.223 9.24326C106.175 9.36929 106.103 9.48468 106.011 9.58285C105.915 9.68491 105.799 9.76624 105.671 9.8218C105.542 9.87737 105.404 9.906 105.263 9.90594C105.002 9.90607 104.751 9.80666 104.561 9.62798ZM96.1783 5.79094C96.1722 5.6544 96.1939 5.51804 96.242 5.39012C96.2902 5.26221 96.3638 5.14541 96.4585 5.04682C96.5531 4.94822 96.6668 4.86988 96.7927 4.81655C96.9185 4.76322 97.0538 4.736 97.1905 4.73655C97.4637 4.73627 97.726 4.84385 97.9203 5.03591C98.1147 5.22797 98.2254 5.48899 98.2283 5.76223C98.2335 6.036 98.1299 6.30063 97.94 6.49797C97.7502 6.6953 97.4899 6.80918 97.2161 6.81457H97.2028C96.6429 6.81662 96.1855 6.30378 96.1783 5.79094ZM105.499 5.53555C105.494 5.40141 105.516 5.26763 105.563 5.1419C105.61 5.01617 105.681 4.90098 105.773 4.80297C105.865 4.70496 105.975 4.62607 106.097 4.57084C106.22 4.51561 106.352 4.48513 106.486 4.48116C106.62 4.47483 106.754 4.4951 106.88 4.5408C107.006 4.58649 107.122 4.65672 107.22 4.74741C107.319 4.8381 107.399 4.94746 107.455 5.06918C107.512 5.1909 107.543 5.32256 107.548 5.45657C107.555 5.59102 107.534 5.72542 107.488 5.85177C107.442 5.97812 107.37 6.09384 107.278 6.19204C107.186 6.29023 107.075 6.36889 106.952 6.42333C106.829 6.47777 106.696 6.50688 106.562 6.50892H106.523C106.259 6.51179 106.005 6.41172 105.814 6.22997C105.622 6.04822 105.51 5.7991 105.499 5.53555ZM97.8284 3.14163C97.6349 2.95052 97.5252 2.69037 97.5235 2.41839C97.5218 2.14642 97.6281 1.8849 97.8191 1.69133C98.0102 1.49782 98.2704 1.38814 98.5423 1.3864C98.8142 1.38467 99.0757 1.49104 99.2693 1.6821C99.3652 1.77675 99.4416 1.88939 99.494 2.01358C99.5464 2.13776 99.5738 2.27106 99.5746 2.40585C99.5755 2.54064 99.5498 2.67428 99.499 2.79912C99.4482 2.92397 99.3732 3.03756 99.2785 3.13343C99.1832 3.23059 99.0697 3.30783 98.9443 3.36065C98.8189 3.41348 98.6843 3.44084 98.5483 3.44113C98.4145 3.44101 98.282 3.41449 98.1585 3.3631C98.035 3.31171 97.9228 3.23645 97.8284 3.14163ZM104.321 3.00625C104.222 2.9152 104.141 2.80549 104.085 2.68337C104.028 2.56126 103.995 2.42915 103.99 2.29457C103.984 2.15999 104.005 2.02558 104.051 1.89902C104.097 1.77246 104.167 1.65623 104.258 1.55697C104.349 1.45769 104.459 1.37732 104.581 1.32045C104.703 1.26357 104.835 1.23131 104.97 1.2255C105.105 1.21969 105.239 1.24045 105.366 1.28659C105.492 1.33273 105.608 1.40334 105.708 1.4944C105.807 1.58545 105.887 1.69516 105.944 1.81727C106.001 1.93938 106.033 2.0715 106.039 2.20608C106.045 2.34066 106.024 2.47507 105.978 2.60163C105.932 2.72818 105.861 2.84441 105.77 2.94368C105.674 3.04843 105.557 3.13206 105.427 3.18927C105.297 3.24648 105.156 3.27601 105.014 3.276C104.758 3.27603 104.51 3.17977 104.321 3.00625ZM100.84 1.02567C100.84 0.753647 100.948 0.492763 101.141 0.300412C101.333 0.108061 101.594 0 101.866 0C102.138 0 102.399 0.108061 102.591 0.300412C102.783 0.492763 102.891 0.753647 102.891 1.02567C102.891 1.2977 102.783 1.55858 102.591 1.75093C102.399 1.94328 102.138 2.05134 101.866 2.05134C101.594 2.05134 101.333 1.94328 101.141 1.75093C100.948 1.55858 100.84 1.2977 100.84 1.02567Z" fill="#1E243A"/>
<path d="M18.6072 83.38C18.6041 83.2459 18.6275 83.1125 18.6762 82.9875C18.7248 82.8625 18.7977 82.7484 18.8907 82.6517C18.9836 82.555 19.0948 82.4777 19.2177 82.4242C19.3407 82.3707 19.473 82.342 19.6071 82.3399C19.7408 82.3348 19.8742 82.3563 19.9995 82.4032C20.1249 82.45 20.2397 82.5212 20.3373 82.6126C20.435 82.7041 20.5135 82.814 20.5685 82.9361C20.6234 83.0581 20.6535 83.1898 20.6572 83.3235C20.6615 83.458 20.6387 83.5919 20.5901 83.7173C20.5416 83.8427 20.4682 83.957 20.3745 84.0535C20.2809 84.15 20.1687 84.2266 20.0448 84.2788C19.9209 84.331 19.7877 84.3578 19.6532 84.3574H19.6276C19.3631 84.3616 19.1077 84.2613 18.9167 84.0783C18.7257 83.8953 18.6145 83.6444 18.6072 83.38ZM15.5706 82.8189C15.4732 82.7254 15.3952 82.6135 15.3411 82.4898C15.287 82.366 15.2579 82.2328 15.2554 82.0978C15.2529 81.9627 15.2772 81.8285 15.3267 81.7029C15.3762 81.5772 15.45 81.4626 15.5439 81.3655C15.6373 81.2685 15.7489 81.1908 15.8724 81.1369C15.9958 81.0829 16.1286 81.0539 16.2633 81.0513C16.3979 81.0487 16.5318 81.0727 16.6572 81.1219C16.7825 81.171 16.897 81.2444 16.9941 81.3378C17.1897 81.5265 17.3025 81.785 17.3077 82.0567C17.3129 82.3285 17.2101 82.5912 17.0217 82.7871C16.9261 82.8869 16.8113 82.9663 16.6843 83.0206C16.5572 83.0749 16.4205 83.1029 16.2823 83.103C16.1505 83.107 16.0194 83.0839 15.8969 83.035C15.7745 82.9861 15.6634 82.9126 15.5706 82.8189ZM22.2109 82.6558C22.1127 82.5636 22.0336 82.4529 21.9782 82.3301C21.9228 82.2073 21.8921 82.0747 21.8879 81.94C21.8837 81.8053 21.9061 81.6711 21.9538 81.5451C22.0015 81.4191 22.0735 81.3037 22.1658 81.2055C22.258 81.1073 22.3687 81.0282 22.4915 80.9728C22.6143 80.9173 22.7468 80.8866 22.8815 80.8824C23.0162 80.8783 23.1503 80.9007 23.2764 80.9483C23.4024 80.996 23.5177 81.0681 23.6159 81.1604C23.7141 81.2526 23.7932 81.3633 23.8486 81.4861C23.9041 81.609 23.9347 81.7415 23.9389 81.8762C23.9431 82.0109 23.9207 82.1451 23.873 82.2711C23.8254 82.3971 23.7533 82.5125 23.661 82.6107C23.5651 82.7128 23.4492 82.7941 23.3206 82.8496C23.1921 82.9052 23.0535 82.9338 22.9134 82.9338C22.6524 82.9339 22.4012 82.8345 22.2109 82.6558ZM13.8282 78.8085C13.8249 78.5355 13.9295 78.2723 14.1192 78.076C14.309 77.8797 14.5685 77.7662 14.8415 77.7603C15.1145 77.7605 15.3765 77.8683 15.5707 78.0602C15.7649 78.2522 15.8758 78.5129 15.8793 78.786C15.8845 79.0599 15.7809 79.3248 15.5911 79.5224C15.4014 79.7201 15.141 79.8344 14.8671 79.8403H14.8538C14.5823 79.8353 14.3235 79.7248 14.132 79.5322C13.9406 79.3396 13.8316 79.0801 13.8282 78.8085ZM23.1493 78.5788C23.1393 78.307 23.2376 78.0425 23.4226 77.8432C23.6076 77.644 23.8641 77.5263 24.1358 77.5162C24.4075 77.5062 24.6721 77.6045 24.8713 77.7896C25.0705 77.9746 25.1881 78.2312 25.1983 78.5029C25.2083 78.7746 25.11 79.0392 24.925 79.2384C24.74 79.4377 24.4834 79.5553 24.2117 79.5655H24.1728C23.9078 79.5651 23.6532 79.4622 23.4624 79.2783C23.2716 79.0943 23.1594 78.8436 23.1493 78.5788ZM15.4783 76.1695C15.2848 75.9784 15.1752 75.7182 15.1734 75.4462C15.1717 75.1743 15.278 74.9127 15.4691 74.7192C15.6602 74.5257 15.9203 74.416 16.1922 74.4142C16.4642 74.4125 16.7257 74.5189 16.9192 74.7099C17.0152 74.8046 17.0915 74.9172 17.1439 75.0414C17.1963 75.1656 17.2237 75.2989 17.2246 75.4337C17.2254 75.5685 17.1997 75.7021 17.1489 75.8269C17.0981 75.9518 17.0232 76.0654 16.9284 76.1613C16.8332 76.2584 16.7196 76.3357 16.5942 76.3885C16.4689 76.4413 16.3343 76.4687 16.1982 76.469C16.0644 76.4688 15.932 76.4423 15.8084 76.3909C15.6849 76.3395 15.5727 76.2643 15.4783 76.1695ZM21.971 76.0341C21.8717 75.943 21.7913 75.8333 21.7345 75.7112C21.6776 75.5891 21.6453 75.457 21.6395 75.3224C21.6337 75.1878 21.6545 75.0534 21.7006 74.9269C21.7467 74.8003 21.8173 74.6841 21.9084 74.5848C22.0922 74.3846 22.348 74.2656 22.6195 74.2538C22.891 74.2421 23.156 74.3386 23.3564 74.5222C23.4558 74.6132 23.5362 74.7229 23.5932 74.8449C23.6501 74.967 23.6825 75.0991 23.6884 75.2337C23.6943 75.3683 23.6736 75.5027 23.6276 75.6293C23.5815 75.7559 23.511 75.8722 23.42 75.9715C23.3239 76.0763 23.2071 76.1599 23.077 76.2171C22.9469 76.2743 22.8063 76.3038 22.6642 76.3038C22.4075 76.3039 22.1601 76.2076 21.971 76.0341ZM18.4903 74.0535C18.4903 73.7815 18.5983 73.5206 18.7907 73.3282C18.983 73.1359 19.2438 73.0278 19.5158 73.0278C19.7878 73.0278 20.0486 73.1359 20.241 73.3282C20.4333 73.5206 20.5413 73.7815 20.5413 74.0535C20.5413 74.3255 20.4333 74.5864 20.241 74.7788C20.0486 74.9711 19.7878 75.0792 19.5158 75.0792C19.3811 75.0792 19.2478 75.0526 19.1234 75.0011C18.999 74.9496 18.8859 74.874 18.7907 74.7788C18.6954 74.6835 18.6199 74.5704 18.5684 74.446C18.5168 74.3216 18.4903 74.1882 18.4903 74.0535Z" fill="#1E243A"/>
<path d="M91.7275 125.843C91.7244 125.709 91.7478 125.575 91.7964 125.45C91.8451 125.325 91.918 125.211 92.0109 125.115C92.1039 125.018 92.215 124.941 92.338 124.887C92.461 124.834 92.5933 124.805 92.7274 124.803C92.8611 124.798 92.9944 124.819 93.1198 124.866C93.2451 124.913 93.3599 124.984 93.4576 125.076C93.5552 125.167 93.6338 125.277 93.6887 125.399C93.7436 125.521 93.7738 125.653 93.7775 125.786C93.7818 125.921 93.759 126.055 93.7104 126.18C93.6618 126.306 93.5885 126.42 93.4948 126.516C93.4011 126.613 93.289 126.689 93.1651 126.742C93.0412 126.794 92.908 126.821 92.7735 126.82H92.7479C92.4834 126.824 92.228 126.724 92.0369 126.541C91.8459 126.358 91.7347 126.107 91.7275 125.843ZM88.6909 125.276C88.5938 125.182 88.5161 125.071 88.4622 124.947C88.4083 124.824 88.3793 124.691 88.3767 124.556C88.3741 124.422 88.3981 124.288 88.4473 124.162C88.4964 124.037 88.5698 123.922 88.6632 123.825C88.7566 123.728 88.8683 123.651 88.9917 123.597C89.1152 123.543 89.2481 123.514 89.3827 123.512C89.5174 123.509 89.6512 123.533 89.7765 123.582C89.9019 123.632 90.0163 123.705 90.1133 123.799C90.2103 123.892 90.2879 124.004 90.3417 124.127C90.3955 124.251 90.4245 124.384 90.427 124.518C90.4294 124.653 90.4054 124.787 90.3561 124.912C90.3069 125.038 90.2334 125.152 90.14 125.249C90.0443 125.348 89.9296 125.427 89.8027 125.481C89.6759 125.535 89.5394 125.563 89.4016 125.563C89.1365 125.563 88.8818 125.46 88.6909 125.276ZM95.3312 125.119C95.233 125.026 95.1539 124.916 95.0985 124.793C95.043 124.67 95.0123 124.538 95.0082 124.403C95.004 124.268 95.0264 124.134 95.074 124.008C95.1217 123.882 95.1938 123.767 95.2861 123.668C95.3783 123.57 95.489 123.491 95.6118 123.436C95.7346 123.38 95.8671 123.35 96.0018 123.345C96.1364 123.341 96.2706 123.364 96.3966 123.411C96.5226 123.459 96.638 123.531 96.7362 123.623C96.8344 123.715 96.9135 123.826 96.9689 123.949C97.0243 124.072 97.055 124.204 97.0592 124.339C97.0634 124.474 97.041 124.608 96.9933 124.734C96.9456 124.86 96.8736 124.975 96.7813 125.074C96.6853 125.176 96.5695 125.257 96.4409 125.313C96.3123 125.368 96.1737 125.397 96.0337 125.397C95.7727 125.397 95.5214 125.297 95.3312 125.119ZM86.9485 121.271C86.9452 120.998 87.0498 120.735 87.2395 120.539C87.4292 120.343 87.6888 120.229 87.9617 120.223C88.2348 120.223 88.4968 120.331 88.691 120.523C88.8852 120.715 88.9961 120.976 88.9996 121.249C89.0048 121.523 88.9012 121.788 88.7114 121.985C88.5217 122.183 88.2613 122.297 87.9874 122.303H87.974C87.7026 122.298 87.4439 122.187 87.2526 121.995C87.0612 121.802 86.9522 121.543 86.9485 121.271ZM96.2696 121.026C96.2646 120.892 96.2863 120.758 96.3333 120.633C96.3803 120.507 96.4517 120.392 96.5434 120.294C96.6351 120.196 96.7453 120.117 96.8676 120.062C96.9899 120.006 97.122 119.976 97.2561 119.972C97.39 119.966 97.5239 119.986 97.65 120.032C97.7761 120.077 97.8918 120.147 97.9906 120.238C98.0894 120.329 98.1692 120.438 98.2255 120.56C98.2818 120.682 98.3134 120.813 98.3186 120.947C98.3252 121.082 98.3047 121.216 98.2583 121.342C98.2119 121.469 98.1405 121.585 98.0485 121.683C97.9564 121.781 97.8455 121.86 97.7224 121.914C97.5994 121.968 97.4666 121.998 97.332 122H97.2941C97.0301 122.003 96.7753 121.903 96.5839 121.721C96.3925 121.54 96.2797 121.29 96.2696 121.026ZM88.5986 118.632C88.4051 118.441 88.2954 118.181 88.2937 117.909C88.292 117.637 88.3983 117.376 88.5893 117.182C88.7804 116.989 89.0406 116.879 89.3125 116.877C89.5844 116.875 89.8459 116.982 90.0395 117.173C90.1354 117.267 90.2118 117.38 90.2642 117.504C90.3166 117.628 90.344 117.762 90.3448 117.897C90.3457 118.031 90.32 118.165 90.2692 118.29C90.2184 118.415 90.1434 118.528 90.0487 118.624C89.9535 118.721 89.8399 118.799 89.7145 118.851C89.5891 118.904 89.4545 118.932 89.3185 118.932C89.1847 118.932 89.0522 118.905 88.9287 118.854C88.8052 118.802 88.693 118.727 88.5986 118.632ZM95.0912 118.497C94.992 118.406 94.9116 118.296 94.8547 118.174C94.7979 118.052 94.7656 117.92 94.7598 117.785C94.754 117.651 94.7747 117.516 94.8209 117.39C94.867 117.263 94.9376 117.147 95.0287 117.048C95.2125 116.847 95.4682 116.728 95.7397 116.717C96.0113 116.705 96.2763 116.802 96.4767 116.985C96.677 117.169 96.7962 117.425 96.8081 117.696C96.8201 117.968 96.7237 118.233 96.5403 118.433C96.4443 118.538 96.3275 118.622 96.1974 118.68C96.0673 118.737 95.9267 118.767 95.7845 118.767C95.5278 118.767 95.2804 118.67 95.0912 118.497ZM91.6106 116.516C91.6106 116.244 91.7186 115.983 91.9109 115.791C92.1033 115.599 92.3641 115.491 92.6361 115.491C92.9081 115.491 93.1689 115.599 93.3612 115.791C93.5536 115.983 93.6616 116.244 93.6616 116.516C93.6616 116.788 93.5536 117.049 93.3612 117.242C93.1689 117.434 92.9081 117.542 92.6361 117.542C92.3641 117.542 92.1033 117.434 91.9109 117.242C91.7186 117.049 91.6106 116.788 91.6106 116.516Z" fill="#1E243A"/>
</g>
<defs>
<clipPath id="clip0_435_15871">
<rect width="161" height="135" fill="white"/>
</clipPath>
</defs>
</svg>
